<?xml version="1.0" standalone="no"?>
<!DOCTYPE svg PUBLIC "-//W3C//DTD SVG 20010904//EN"
 "http://www.w3.org/TR/2001/REC-SVG-20010904/DTD/svg10.dtd">
<svg version="1.0" xmlns="http://www.w3.org/2000/svg"
 width="452.000000pt" height="124.000000pt" viewBox="0 0 452.000000 124.000000"
 preserveAspectRatio="xMidYMid meet">

<g transform="translate(0.000000,124.000000) scale(0.100000,-0.100000)"
fill="#000000" stroke="none">
<path d="M1400 891 c-55 -17 -110 -52 -148 -96 -130 -148 -81 -387 96 -471
105 -51 231 -36 324 38 l38 30 0 -51 0 -51 35 0 35 0 0 183 c0 222 -9 256 -84
333 -77 78 -201 114 -296 85z m144 -75 c66 -20 110 -57 140 -118 43 -87 31
-180 -32 -250 -48 -53 -102 -78 -172 -78 -172 0 -280 175 -204 328 30 60 74
98 136 117 56 18 75 18 132 1z"/>
<path d="M1882 598 l3 -303 38 -3 37 -3 0 305 0 306 -40 0 -40 0 2 -302z"/>
<path d="M2110 790 l0 -110 -35 0 c-34 0 -35 -1 -35 -40 0 -39 1 -40 35 -40
l35 0 0 -155 0 -155 35 0 35 0 0 155 0 155 35 0 c34 0 35 1 35 39 0 37 -2 40
-32 43 l-33 3 -3 108 -3 107 -34 0 -35 0 0 -110z"/>
<path d="M2780 595 l0 -305 35 0 35 0 0 305 0 305 -35 0 -35 0 0 -305z"/>
<path d="M960 575 l0 -275 65 0 65 0 0 275 0 275 -65 0 -65 0 0 -275z"/>
<path d="M2960 820 c-25 -25 -26 -52 -2 -73 25 -23 48 -21 73 4 22 22 19 55
-9 77 -22 17 -39 15 -62 -8z"/>
<path d="M770 525 l0 -225 65 0 65 0 0 225 0 225 -65 0 -65 0 0 -225z"/>
<path d="M2431 695 c-83 -26 -130 -97 -131 -198 0 -113 81 -207 181 -207 27 0
29 3 29 35 0 29 -4 35 -20 35 -29 0 -76 26 -94 52 -33 46 -27 48 155 48 l172
0 -6 49 c-18 152 -140 232 -286 186z m149 -80 c25 -13 60 -60 60 -80 0 -3 -58
-5 -130 -5 -121 0 -130 1 -130 19 0 10 16 33 35 50 30 26 44 31 86 31 27 0 63
-7 79 -15z"/>
<path d="M3607 666 c-82 -30 -99 -73 -95 -246 l3 -125 33 -3 32 -3 0 140 c0
139 0 140 26 160 38 30 98 28 129 -4 24 -23 25 -29 25 -160 l0 -136 33 3 32 3
3 137 c3 134 3 137 29 157 25 21 75 27 108 15 34 -13 45 -58 45 -189 l0 -125
30 0 30 0 0 143 c0 123 -3 146 -20 174 -26 43 -58 63 -116 69 -40 5 -58 1 -98
-20 -48 -25 -49 -25 -75 -5 -35 25 -107 33 -154 15z"/>
<path d="M2960 480 l0 -190 35 0 35 0 0 190 0 190 -35 0 -35 0 0 -190z"/>
<path d="M3120 538 c0 -146 11 -184 62 -221 40 -30 115 -34 171 -9 70 31 81
60 85 225 l4 137 -36 0 -36 0 0 -129 c0 -115 -2 -131 -21 -155 -17 -21 -29
-26 -68 -26 -34 0 -53 6 -69 20 -21 19 -22 30 -22 155 l0 135 -35 0 -35 0 0
-132z"/>
<path d="M580 460 l0 -160 65 0 65 0 0 160 0 160 -65 0 -65 0 0 -160z"/>
</g>
</svg>
