<?xml version="1.0" encoding="UTF-8"?> <svg xmlns="http://www.w3.org/2000/svg" viewBox="0 0 104.88 18.41"><defs><style>.cls-1{fill:#1d1d72;}</style></defs><g id="Layer_2" data-name="Layer 2"><g id="Artwork"><path class="cls-1" d="M48.2,6.52h2.1V8.88H48.2v9.35H46V8.88H43.92V6.52H46V0H48.2Zm-9,11.71H41.4V0H39.21Zm-3-9.12h0v9.11H34V15a9.11,9.11,0,1,1,2.19-5.93ZM34,9.11A6.92,6.92,0,1,0,27.06,16,6.93,6.93,0,0,0,34,9.11Zm70.31-.28a4.35,4.35,0,0,0-4.11-2.15,4.48,4.48,0,0,0-3.71,1.57,4.49,4.49,0,0,0-3.71-1.57,4.35,4.35,0,0,0-4.11,2.15A4.6,4.6,0,0,0,88.06,11v7.27h2V11c0-.23.08-2.3,2.73-2.3s2.71,1.93,2.72,2.3v7.27h2V11c0-.23.07-2.3,2.72-2.3s2.72,1.93,2.72,2.3v7.27h2V11A4.74,4.74,0,0,0,104.29,8.83ZM83.77,14c0,.24-.08,2.3-2.74,2.3S78.29,14.4,78.28,14V6.76h-2V14a4.6,4.6,0,0,0,.59,2.14,5.05,5.05,0,0,0,8.27,0,4.67,4.67,0,0,0,.6-2.14V6.76h-2ZM64.19,12.09v1.09H53.88a3.76,3.76,0,0,0,4,3v2.19a6.1,6.1,0,0,1-6.32-6.32,6.32,6.32,0,0,1,12.64,0ZM61.85,11a3.75,3.75,0,0,0-4-3,3.75,3.75,0,0,0-4,3Zm9.53,7.24h2.19V6.76H71.38Zm-5.32,0h2.19V0H66.06Z"></path><path class="cls-1" d="M11.45,1.53h4v16.7h-4ZM5.72,18.23h4V4.33h-4ZM0,18.23H4v-10H0ZM72.48,1.84a1.66,1.66,0,1,0,1.65,1.65A1.65,1.65,0,0,0,72.48,1.84Z"></path></g></g></svg> 